<?xml version="1.0" encoding="UTF-8"?>
<svg xmlns="http://www.w3.org/2000/svg" version="1.1" width="200" height="200" viewBox="0 0 200 200"><rect x="0" y="0" width="200" height="200" fill="#ffffff"/><g transform="scale(4.878)"><g transform="translate(0,0)"><path fill-rule="evenodd" d="M10 0L10 3L8 3L8 4L9 4L9 5L8 5L8 7L9 7L9 8L6 8L6 9L5 9L5 8L0 8L0 9L1 9L1 11L0 11L0 15L1 15L1 16L2 16L2 17L1 17L1 18L0 18L0 19L1 19L1 18L2 18L2 17L3 17L3 18L4 18L4 17L3 17L3 15L5 15L5 17L7 17L7 18L5 18L5 19L4 19L4 21L7 21L7 22L4 22L4 23L3 23L3 20L2 20L2 21L1 21L1 20L0 20L0 27L1 27L1 28L0 28L0 33L1 33L1 30L2 30L2 27L1 27L1 26L4 26L4 25L5 25L5 26L6 26L6 27L7 27L7 26L6 26L6 25L9 25L9 26L8 26L8 28L9 28L9 29L10 29L10 28L14 28L14 29L15 29L15 31L14 31L14 32L13 32L13 31L12 31L12 33L8 33L8 35L9 35L9 36L8 36L8 41L9 41L9 39L11 39L11 40L10 40L10 41L16 41L16 40L12 40L12 39L13 39L13 38L11 38L11 37L10 37L10 35L11 35L11 34L13 34L13 33L15 33L15 35L14 35L14 36L15 36L15 37L14 37L14 39L16 39L16 38L20 38L20 37L21 37L21 38L24 38L24 39L23 39L23 40L22 40L22 39L21 39L21 41L24 41L24 40L25 40L25 39L26 39L26 38L27 38L27 40L26 40L26 41L28 41L28 38L27 38L27 37L31 37L31 38L32 38L32 37L33 37L33 38L34 38L34 39L32 39L32 40L29 40L29 41L32 41L32 40L34 40L34 39L35 39L35 40L36 40L36 41L37 41L37 40L38 40L38 41L39 41L39 40L40 40L40 39L39 39L39 40L38 40L38 39L37 39L37 38L39 38L39 37L40 37L40 38L41 38L41 37L40 37L40 36L41 36L41 35L40 35L40 34L41 34L41 31L39 31L39 32L38 32L38 30L37 30L37 29L36 29L36 28L38 28L38 29L39 29L39 28L38 28L38 26L39 26L39 27L40 27L40 26L41 26L41 23L40 23L40 22L41 22L41 21L40 21L40 20L41 20L41 19L40 19L40 18L41 18L41 17L40 17L40 16L41 16L41 15L39 15L39 14L38 14L38 15L37 15L37 12L38 12L38 13L39 13L39 12L40 12L40 13L41 13L41 12L40 12L40 10L41 10L41 9L40 9L40 8L39 8L39 10L37 10L37 9L38 9L38 8L37 8L37 9L36 9L36 8L35 8L35 9L34 9L34 8L33 8L33 9L30 9L30 8L29 8L29 9L28 9L28 8L25 8L25 9L28 9L28 10L27 10L27 11L26 11L26 12L25 12L25 14L27 14L27 15L26 15L26 16L24 16L24 17L23 17L23 18L24 18L24 17L26 17L26 16L29 16L29 17L28 17L28 18L26 18L26 19L28 19L28 18L29 18L29 17L30 17L30 20L29 20L29 23L30 23L30 24L29 24L29 25L30 25L30 24L32 24L32 23L30 23L30 21L31 21L31 22L32 22L32 21L33 21L33 20L32 20L32 19L31 19L31 17L32 17L32 18L33 18L33 17L34 17L34 20L35 20L35 19L37 19L37 20L38 20L38 21L36 21L36 22L38 22L38 23L36 23L36 25L34 25L34 24L35 24L35 21L34 21L34 22L33 22L33 25L34 25L34 26L36 26L36 28L35 28L35 29L33 29L33 31L32 31L32 32L31 32L31 31L30 31L30 32L28 32L28 30L26 30L26 28L27 28L27 27L28 27L28 26L27 26L27 27L26 27L26 28L25 28L25 26L24 26L24 25L26 25L26 24L25 24L25 23L26 23L26 22L25 22L25 21L28 21L28 20L25 20L25 21L24 21L24 19L23 19L23 20L22 20L22 19L21 19L21 18L22 18L22 17L18 17L18 16L19 16L19 15L18 15L18 16L17 16L17 17L16 17L16 15L17 15L17 14L16 14L16 13L19 13L19 14L20 14L20 16L23 16L23 13L22 13L22 15L21 15L21 14L20 14L20 12L22 12L22 9L23 9L23 10L24 10L24 11L25 11L25 10L24 10L24 8L22 8L22 7L23 7L23 5L24 5L24 7L25 7L25 6L26 6L26 7L27 7L27 6L28 6L28 7L29 7L29 6L28 6L28 5L30 5L30 7L31 7L31 8L32 8L32 7L33 7L33 6L32 6L32 7L31 7L31 4L32 4L32 5L33 5L33 2L32 2L32 3L31 3L31 1L33 1L33 0L30 0L30 1L29 1L29 0L28 0L28 1L27 1L27 0L26 0L26 2L27 2L27 3L24 3L24 4L21 4L21 3L23 3L23 1L24 1L24 0L22 0L22 2L19 2L19 1L21 1L21 0L18 0L18 2L19 2L19 3L17 3L17 2L16 2L16 1L17 1L17 0L16 0L16 1L15 1L15 0L14 0L14 1L15 1L15 2L14 2L14 3L15 3L15 2L16 2L16 3L17 3L17 4L14 4L14 7L15 7L15 5L17 5L17 4L19 4L19 5L18 5L18 7L19 7L19 5L20 5L20 4L21 4L21 6L20 6L20 7L21 7L21 8L22 8L22 9L18 9L18 8L17 8L17 6L16 6L16 8L17 8L17 9L16 9L16 10L14 10L14 9L15 9L15 8L13 8L13 9L12 9L12 7L13 7L13 3L11 3L11 2L13 2L13 0ZM8 1L8 2L9 2L9 1ZM28 2L28 4L29 4L29 3L30 3L30 2ZM19 3L19 4L20 4L20 3ZM10 4L10 6L9 6L9 7L10 7L10 8L9 8L9 10L8 10L8 9L6 9L6 10L5 10L5 9L3 9L3 10L2 10L2 11L1 11L1 14L2 14L2 15L3 15L3 13L4 13L4 14L7 14L7 15L6 15L6 16L7 16L7 17L8 17L8 18L7 18L7 19L5 19L5 20L7 20L7 21L8 21L8 20L10 20L10 17L12 17L12 15L13 15L13 16L14 16L14 15L15 15L15 13L14 13L14 12L15 12L15 11L14 11L14 12L13 12L13 10L12 10L12 12L11 12L11 9L10 9L10 8L11 8L11 7L12 7L12 4ZM25 4L25 5L27 5L27 4ZM10 6L10 7L11 7L11 6ZM21 6L21 7L22 7L22 6ZM17 9L17 10L18 10L18 9ZM29 9L29 10L28 10L28 11L29 11L29 12L28 12L28 13L27 13L27 14L28 14L28 15L29 15L29 16L30 16L30 17L31 17L31 15L32 15L32 17L33 17L33 13L35 13L35 11L36 11L36 9L35 9L35 10L33 10L33 11L32 11L32 10L30 10L30 9ZM3 10L3 11L2 11L2 13L3 13L3 12L5 12L5 13L8 13L8 15L7 15L7 16L8 16L8 17L10 17L10 16L11 16L11 14L10 14L10 13L8 13L8 11L7 11L7 10L6 10L6 11L5 11L5 10ZM19 10L19 11L20 11L20 10ZM6 11L6 12L7 12L7 11ZM9 11L9 12L10 12L10 11ZM16 11L16 12L18 12L18 11ZM30 11L30 12L29 12L29 13L30 13L30 14L32 14L32 13L31 13L31 12L32 12L32 11ZM33 11L33 12L34 12L34 11ZM38 11L38 12L39 12L39 11ZM12 13L12 14L14 14L14 13ZM9 14L9 15L8 15L8 16L10 16L10 14ZM34 14L34 15L35 15L35 16L34 16L34 17L36 17L36 14ZM38 15L38 17L37 17L37 18L38 18L38 20L39 20L39 15ZM13 17L13 21L10 21L10 22L9 22L9 23L10 23L10 24L11 24L11 22L13 22L13 23L12 23L12 25L13 25L13 24L15 24L15 25L14 25L14 26L16 26L16 23L17 23L17 24L19 24L19 25L21 25L21 26L19 26L19 27L16 27L16 30L19 30L19 33L21 33L21 35L20 35L20 34L19 34L19 35L18 35L18 33L17 33L17 34L16 34L16 35L15 35L15 36L19 36L19 37L20 37L20 36L21 36L21 37L24 37L24 34L26 34L26 35L25 35L25 36L26 36L26 37L25 37L25 38L26 38L26 37L27 37L27 36L30 36L30 35L31 35L31 37L32 37L32 35L31 35L31 34L32 34L32 33L31 33L31 32L30 32L30 33L31 33L31 34L29 34L29 33L27 33L27 31L26 31L26 30L25 30L25 32L23 32L23 31L24 31L24 30L23 30L23 29L25 29L25 28L23 28L23 27L24 27L24 26L23 26L23 27L22 27L22 28L21 28L21 29L20 29L20 30L19 30L19 29L17 29L17 28L20 28L20 27L21 27L21 26L22 26L22 25L24 25L24 22L21 22L21 21L20 21L20 22L19 22L19 21L17 21L17 20L18 20L18 19L17 19L17 20L16 20L16 21L17 21L17 22L15 22L15 23L14 23L14 21L15 21L15 20L14 20L14 19L15 19L15 18L16 18L16 17ZM11 18L11 19L12 19L12 18ZM19 18L19 20L20 20L20 18ZM31 20L31 21L32 21L32 20ZM38 21L38 22L39 22L39 21ZM7 22L7 23L5 23L5 24L8 24L8 22ZM18 22L18 23L19 23L19 24L20 24L20 23L19 23L19 22ZM27 22L27 23L28 23L28 22ZM2 23L2 25L4 25L4 24L3 24L3 23ZM21 23L21 24L22 24L22 23ZM38 23L38 24L37 24L37 26L38 26L38 24L40 24L40 23ZM27 24L27 25L28 25L28 24ZM17 25L17 26L18 26L18 25ZM31 25L31 26L30 26L30 28L29 28L29 29L30 29L30 30L32 30L32 28L34 28L34 27L32 27L32 28L31 28L31 26L32 26L32 25ZM11 26L11 27L12 27L12 26ZM14 27L14 28L15 28L15 27ZM4 28L4 29L3 29L3 31L2 31L2 33L7 33L7 32L3 32L3 31L4 31L4 30L6 30L6 31L8 31L8 32L10 32L10 31L9 31L9 30L6 30L6 29L7 29L7 28L6 28L6 29L5 29L5 28ZM12 29L12 30L13 30L13 29ZM40 29L40 30L41 30L41 29ZM34 30L34 31L33 31L33 32L35 32L35 30ZM36 30L36 32L37 32L37 33L38 33L38 34L37 34L37 35L38 35L38 36L37 36L37 37L34 37L34 38L35 38L35 39L36 39L36 38L37 38L37 37L38 37L38 36L39 36L39 34L40 34L40 33L38 33L38 32L37 32L37 30ZM17 31L17 32L18 32L18 31ZM21 31L21 32L22 32L22 31ZM15 32L15 33L16 33L16 32ZM25 32L25 33L26 33L26 32ZM23 33L23 34L22 34L22 35L21 35L21 36L23 36L23 34L24 34L24 33ZM33 33L33 36L36 36L36 33ZM27 34L27 35L28 35L28 34ZM34 34L34 35L35 35L35 34ZM12 36L12 37L13 37L13 36ZM15 37L15 38L16 38L16 37ZM18 39L18 40L17 40L17 41L19 41L19 40L20 40L20 39ZM0 0L0 7L7 7L7 0ZM1 1L1 6L6 6L6 1ZM2 2L2 5L5 5L5 2ZM34 0L34 7L41 7L41 0ZM35 1L35 6L40 6L40 1ZM36 2L36 5L39 5L39 2ZM0 34L0 41L7 41L7 34ZM1 35L1 40L6 40L6 35ZM2 36L2 39L5 39L5 36Z" fill="#000000"/></g></g></svg>
