<?xml version="1.0" encoding="UTF-8"?>
<svg xmlns="http://www.w3.org/2000/svg" version="1.1" width="200" height="200" viewBox="0 0 200 200"><rect x="0" y="0" width="200" height="200" fill="#ffffff"/><g transform="scale(6.061)"><g transform="translate(0,0)"><path fill-rule="evenodd" d="M8 0L8 4L10 4L10 3L11 3L11 4L12 4L12 2L11 2L11 0ZM12 0L12 1L13 1L13 2L14 2L14 3L13 3L13 5L11 5L11 6L10 6L10 7L9 7L9 5L8 5L8 7L9 7L9 8L10 8L10 7L11 7L11 6L12 6L12 8L11 8L11 9L8 9L8 10L11 10L11 11L10 11L10 13L11 13L11 12L12 12L12 13L13 13L13 14L14 14L14 15L15 15L15 16L16 16L16 17L12 17L12 16L13 16L13 15L12 15L12 16L11 16L11 17L12 17L12 18L10 18L10 17L9 17L9 18L6 18L6 17L8 17L8 16L6 16L6 17L5 17L5 16L4 16L4 14L6 14L6 15L8 15L8 14L9 14L9 12L8 12L8 14L6 14L6 13L7 13L7 12L6 12L6 11L7 11L7 10L5 10L5 12L6 12L6 13L4 13L4 14L2 14L2 12L0 12L0 14L2 14L2 16L3 16L3 17L1 17L1 15L0 15L0 22L2 22L2 21L1 21L1 18L3 18L3 20L4 20L4 18L3 18L3 17L5 17L5 19L7 19L7 20L5 20L5 21L3 21L3 22L4 22L4 23L2 23L2 24L0 24L0 25L2 25L2 24L4 24L4 25L8 25L8 26L10 26L10 25L12 25L12 26L11 26L11 27L8 27L8 29L9 29L9 28L11 28L11 29L10 29L10 31L8 31L8 33L10 33L10 31L11 31L11 32L12 32L12 28L13 28L13 27L14 27L14 26L13 26L13 23L14 23L14 22L15 22L15 23L16 23L16 24L17 24L17 25L19 25L19 24L20 24L20 25L21 25L21 26L22 26L22 25L23 25L23 24L24 24L24 27L23 27L23 28L22 28L22 27L20 27L20 28L18 28L18 26L16 26L16 25L15 25L15 24L14 24L14 25L15 25L15 28L14 28L14 29L13 29L13 30L14 30L14 29L15 29L15 31L14 31L14 33L15 33L15 31L16 31L16 32L17 32L17 33L22 33L22 32L23 32L23 30L25 30L25 31L24 31L24 33L26 33L26 32L25 32L25 31L27 31L27 30L28 30L28 32L29 32L29 33L30 33L30 31L29 31L29 30L28 30L28 29L30 29L30 30L31 30L31 31L32 31L32 30L33 30L33 28L32 28L32 26L31 26L31 25L32 25L32 24L33 24L33 23L31 23L31 22L32 22L32 21L33 21L33 19L32 19L32 18L33 18L33 16L32 16L32 17L30 17L30 18L29 18L29 20L28 20L28 21L30 21L30 19L32 19L32 20L31 20L31 22L27 22L27 23L29 23L29 24L24 24L24 22L25 22L25 21L27 21L27 19L26 19L26 20L25 20L25 21L23 21L23 20L22 20L22 19L24 19L24 18L25 18L25 17L29 17L29 16L30 16L30 15L29 15L29 14L26 14L26 13L29 13L29 11L30 11L30 10L31 10L31 13L30 13L30 14L31 14L31 15L32 15L32 13L33 13L33 12L32 12L32 10L31 10L31 9L33 9L33 8L29 8L29 11L28 11L28 8L27 8L27 9L26 9L26 10L25 10L25 9L23 9L23 10L22 10L22 11L20 11L20 13L21 13L21 12L22 12L22 14L23 14L23 15L21 15L21 14L20 14L20 15L21 15L21 16L18 16L18 14L19 14L19 12L18 12L18 11L19 11L19 9L20 9L20 10L21 10L21 9L22 9L22 8L25 8L25 3L23 3L23 2L22 2L22 1L21 1L21 0L20 0L20 1L19 1L19 0L18 0L18 1L17 1L17 0L14 0L14 1L13 1L13 0ZM23 0L23 1L25 1L25 0ZM15 1L15 2L16 2L16 4L17 4L17 5L14 5L14 6L13 6L13 8L12 8L12 9L11 9L11 10L12 10L12 9L15 9L15 8L16 8L16 9L17 9L17 10L16 10L16 11L17 11L17 10L18 10L18 9L17 9L17 7L18 7L18 8L19 8L19 7L20 7L20 8L21 8L21 7L22 7L22 5L23 5L23 7L24 7L24 5L23 5L23 4L22 4L22 3L21 3L21 2L20 2L20 3L21 3L21 4L22 4L22 5L21 5L21 7L20 7L20 6L19 6L19 7L18 7L18 6L17 6L17 5L20 5L20 4L17 4L17 1ZM9 2L9 3L10 3L10 2ZM18 2L18 3L19 3L19 2ZM14 6L14 7L15 7L15 6ZM16 6L16 7L17 7L17 6ZM0 8L0 11L1 11L1 9L2 9L2 8ZM4 8L4 9L3 9L3 12L4 12L4 9L7 9L7 8ZM13 10L13 11L12 11L12 12L13 12L13 13L17 13L17 14L16 14L16 16L17 16L17 14L18 14L18 13L17 13L17 12L14 12L14 11L15 11L15 10ZM24 10L24 11L23 11L23 12L24 12L24 13L25 13L25 12L27 12L27 11L25 11L25 10ZM10 14L10 15L9 15L9 16L10 16L10 15L11 15L11 14ZM23 15L23 17L17 17L17 18L16 18L16 19L17 19L17 18L18 18L18 20L20 20L20 21L19 21L19 23L18 23L18 24L19 24L19 23L20 23L20 22L21 22L21 20L20 20L20 19L21 19L21 18L23 18L23 17L25 17L25 15ZM9 18L9 19L8 19L8 20L9 20L9 19L10 19L10 22L9 22L9 21L6 21L6 22L5 22L5 23L4 23L4 24L5 24L5 23L6 23L6 24L7 24L7 23L8 23L8 25L9 25L9 23L10 23L10 24L12 24L12 23L13 23L13 21L14 21L14 18L13 18L13 19L12 19L12 20L11 20L11 19L10 19L10 18ZM12 20L12 21L13 21L13 20ZM15 20L15 22L16 22L16 20ZM22 21L22 23L23 23L23 21ZM6 22L6 23L7 23L7 22ZM8 22L8 23L9 23L9 22ZM10 22L10 23L11 23L11 22ZM30 23L30 24L29 24L29 26L30 26L30 25L31 25L31 23ZM25 25L25 28L28 28L28 25ZM26 26L26 27L27 27L27 26ZM16 27L16 30L18 30L18 32L21 32L21 31L22 31L22 29L21 29L21 28L20 28L20 30L19 30L19 29L17 29L17 27ZM30 27L30 29L32 29L32 28L31 28L31 27ZM23 28L23 29L24 29L24 28ZM32 32L32 33L33 33L33 32ZM0 0L0 7L7 7L7 0ZM1 1L1 6L6 6L6 1ZM2 2L2 5L5 5L5 2ZM26 0L26 7L33 7L33 0ZM27 1L27 6L32 6L32 1ZM28 2L28 5L31 5L31 2ZM0 26L0 33L7 33L7 26ZM1 27L1 32L6 32L6 27ZM2 28L2 31L5 31L5 28Z" fill="#000000"/></g></g></svg>
