<?xml version="1.0" encoding="UTF-8"?>
<svg xmlns="http://www.w3.org/2000/svg" version="1.1" width="200" height="200" viewBox="0 0 200 200"><rect x="0" y="0" width="200" height="200" fill="#ffffff"/><g transform="scale(6.061)"><g transform="translate(0,0)"><path fill-rule="evenodd" d="M9 0L9 1L8 1L8 2L9 2L9 3L8 3L8 4L10 4L10 7L11 7L11 4L12 4L12 5L13 5L13 4L16 4L16 5L14 5L14 7L15 7L15 6L16 6L16 8L17 8L17 9L16 9L16 10L15 10L15 11L14 11L14 12L13 12L13 13L12 13L12 11L13 11L13 10L11 10L11 11L10 11L10 9L11 9L11 8L6 8L6 9L5 9L5 8L0 8L0 12L1 12L1 9L2 9L2 11L3 11L3 12L4 12L4 13L3 13L3 14L4 14L4 13L5 13L5 14L6 14L6 15L7 15L7 16L6 16L6 17L7 17L7 18L6 18L6 19L5 19L5 20L4 20L4 19L3 19L3 18L5 18L5 15L2 15L2 13L1 13L1 15L0 15L0 18L2 18L2 21L3 21L3 20L4 20L4 21L7 21L7 22L6 22L6 23L5 23L5 22L3 22L3 24L2 24L2 25L3 25L3 24L4 24L4 23L5 23L5 25L7 25L7 24L8 24L8 21L9 21L9 22L10 22L10 21L12 21L12 22L13 22L13 23L12 23L12 25L13 25L13 26L11 26L11 25L10 25L10 24L9 24L9 25L8 25L8 27L9 27L9 28L8 28L8 33L9 33L9 28L10 28L10 29L12 29L12 30L13 30L13 31L14 31L14 32L13 32L13 33L16 33L16 32L15 32L15 31L16 31L16 30L15 30L15 29L14 29L14 28L12 28L12 27L14 27L14 26L15 26L15 28L17 28L17 29L19 29L19 26L21 26L21 25L20 25L20 24L22 24L22 25L23 25L23 24L22 24L22 23L23 23L23 22L24 22L24 26L22 26L22 27L20 27L20 30L23 30L23 32L24 32L24 33L25 33L25 32L24 32L24 31L27 31L27 30L25 30L25 29L30 29L30 32L29 32L29 33L30 33L30 32L31 32L31 33L32 33L32 32L31 32L31 31L32 31L32 30L31 30L31 29L32 29L32 28L31 28L31 27L32 27L32 26L33 26L33 23L30 23L30 24L32 24L32 25L30 25L30 26L31 26L31 27L30 27L30 28L29 28L29 23L28 23L28 21L30 21L30 20L31 20L31 19L32 19L32 20L33 20L33 19L32 19L32 18L31 18L31 17L32 17L32 16L31 16L31 15L32 15L32 14L33 14L33 13L32 13L32 14L31 14L31 13L30 13L30 14L29 14L29 15L30 15L30 16L31 16L31 17L30 17L30 18L31 18L31 19L30 19L30 20L29 20L29 18L28 18L28 17L29 17L29 16L28 16L28 13L29 13L29 12L32 12L32 10L33 10L33 9L32 9L32 8L31 8L31 9L30 9L30 8L29 8L29 10L26 10L26 8L25 8L25 9L23 9L23 10L24 10L24 11L23 11L23 12L22 12L22 11L20 11L20 12L19 12L19 11L18 11L18 12L17 12L17 13L16 13L16 11L17 11L17 9L18 9L18 10L20 10L20 9L19 9L19 8L20 8L20 7L21 7L21 8L22 8L22 7L23 7L23 5L24 5L24 7L25 7L25 4L23 4L23 5L21 5L21 6L20 6L20 7L19 7L19 5L20 5L20 4L21 4L21 3L22 3L22 2L21 2L21 3L20 3L20 2L19 2L19 1L20 1L20 0L18 0L18 1L17 1L17 0L16 0L16 1L15 1L15 2L14 2L14 3L13 3L13 4L12 4L12 2L13 2L13 1L14 1L14 0L13 0L13 1L11 1L11 2L10 2L10 0ZM21 0L21 1L22 1L22 0ZM23 0L23 1L24 1L24 3L25 3L25 0ZM16 1L16 2L17 2L17 5L16 5L16 6L17 6L17 8L18 8L18 6L17 6L17 5L19 5L19 3L18 3L18 2L17 2L17 1ZM10 3L10 4L11 4L11 3ZM8 5L8 7L9 7L9 5ZM12 6L12 9L15 9L15 8L13 8L13 6ZM21 6L21 7L22 7L22 6ZM27 8L27 9L28 9L28 8ZM3 9L3 11L4 11L4 12L5 12L5 13L6 13L6 14L7 14L7 15L9 15L9 17L11 17L11 18L8 18L8 19L6 19L6 20L9 20L9 19L10 19L10 20L11 20L11 18L13 18L13 19L12 19L12 21L13 21L13 22L14 22L14 23L13 23L13 24L14 24L14 25L15 25L15 26L16 26L16 27L17 27L17 28L18 28L18 26L19 26L19 25L17 25L17 24L18 24L18 23L20 23L20 22L16 22L16 23L15 23L15 20L14 20L14 18L16 18L16 17L12 17L12 15L13 15L13 16L15 16L15 15L14 15L14 14L16 14L16 13L13 13L13 14L12 14L12 13L11 13L11 12L10 12L10 13L11 13L11 14L10 14L10 15L9 15L9 14L7 14L7 13L8 13L8 12L9 12L9 11L8 11L8 10L9 10L9 9L6 9L6 10L5 10L5 9ZM21 9L21 10L22 10L22 9ZM6 10L6 11L7 11L7 12L6 12L6 13L7 13L7 12L8 12L8 11L7 11L7 10ZM29 10L29 11L28 11L28 12L27 12L27 11L25 11L25 12L24 12L24 13L25 13L25 14L26 14L26 13L28 13L28 12L29 12L29 11L30 11L30 10ZM20 12L20 13L21 13L21 12ZM17 13L17 16L18 16L18 13ZM19 14L19 17L17 17L17 19L16 19L16 20L18 20L18 18L19 18L19 21L20 21L20 19L21 19L21 18L19 18L19 17L22 17L22 19L23 19L23 21L22 21L22 20L21 20L21 22L23 22L23 21L27 21L27 20L28 20L28 18L23 18L23 17L22 17L22 16L24 16L24 17L28 17L28 16L24 16L24 14L23 14L23 15L22 15L22 14L21 14L21 15L20 15L20 14ZM1 15L1 17L2 17L2 15ZM10 15L10 16L11 16L11 15ZM21 15L21 16L22 16L22 15ZM24 19L24 20L25 20L25 19ZM26 19L26 20L27 20L27 19ZM13 20L13 21L14 21L14 20ZM0 21L0 25L1 25L1 21ZM32 21L32 22L33 22L33 21ZM25 22L25 24L28 24L28 23L27 23L27 22ZM6 23L6 24L7 24L7 23ZM15 24L15 25L16 25L16 24ZM9 25L9 27L10 27L10 28L11 28L11 27L10 27L10 25ZM25 25L25 28L28 28L28 25ZM26 26L26 27L27 27L27 26ZM23 27L23 29L24 29L24 27ZM21 28L21 29L22 29L22 28ZM30 28L30 29L31 29L31 28ZM13 29L13 30L14 30L14 31L15 31L15 30L14 30L14 29ZM10 30L10 31L11 31L11 30ZM18 30L18 32L17 32L17 33L19 33L19 30ZM21 31L21 32L22 32L22 31ZM10 32L10 33L12 33L12 32ZM26 32L26 33L27 33L27 32ZM0 0L0 7L7 7L7 0ZM1 1L1 6L6 6L6 1ZM2 2L2 5L5 5L5 2ZM26 0L26 7L33 7L33 0ZM27 1L27 6L32 6L32 1ZM28 2L28 5L31 5L31 2ZM0 26L0 33L7 33L7 26ZM1 27L1 32L6 32L6 27ZM2 28L2 31L5 31L5 28Z" fill="#000000"/></g></g></svg>
