<?xml version="1.0" encoding="UTF-8"?>
<svg xmlns="http://www.w3.org/2000/svg" version="1.1" width="200" height="200" viewBox="0 0 200 200"><rect x="0" y="0" width="200" height="200" fill="#ffffff"/><g transform="scale(6.061)"><g transform="translate(0,0)"><path fill-rule="evenodd" d="M9 0L9 1L11 1L11 2L9 2L9 3L8 3L8 5L9 5L9 6L8 6L8 7L9 7L9 9L10 9L10 10L9 10L9 11L10 11L10 12L9 12L9 13L8 13L8 8L5 8L5 9L4 9L4 11L3 11L3 12L4 12L4 11L5 11L5 10L6 10L6 11L7 11L7 12L6 12L6 13L8 13L8 14L6 14L6 15L5 15L5 14L4 14L4 16L3 16L3 17L4 17L4 18L2 18L2 19L4 19L4 18L5 18L5 20L6 20L6 21L5 21L5 22L6 22L6 23L8 23L8 22L9 22L9 21L8 21L8 20L6 20L6 19L7 19L7 18L5 18L5 17L9 17L9 18L8 18L8 19L9 19L9 20L10 20L10 21L12 21L12 22L13 22L13 23L12 23L12 24L11 24L11 23L10 23L10 24L11 24L11 25L13 25L13 26L10 26L10 25L8 25L8 28L9 28L9 31L8 31L8 33L9 33L9 31L10 31L10 30L11 30L11 31L12 31L12 30L13 30L13 31L14 31L14 32L13 32L13 33L16 33L16 31L18 31L18 32L17 32L17 33L19 33L19 31L21 31L21 28L20 28L20 30L16 30L16 29L14 29L14 28L15 28L15 27L16 27L16 25L17 25L17 24L16 24L16 22L15 22L15 21L17 21L17 22L20 22L20 23L18 23L18 25L19 25L19 26L18 26L18 28L17 28L17 29L19 29L19 26L22 26L22 27L24 27L24 29L23 29L23 28L22 28L22 31L23 31L23 32L24 32L24 33L25 33L25 32L24 32L24 31L25 31L25 29L27 29L27 30L28 30L28 31L27 31L27 32L26 32L26 33L27 33L27 32L28 32L28 31L30 31L30 32L29 32L29 33L30 33L30 32L31 32L31 33L32 33L32 32L31 32L31 29L32 29L32 28L33 28L33 27L32 27L32 26L33 26L33 25L32 25L32 24L33 24L33 23L30 23L30 24L29 24L29 23L28 23L28 22L29 22L29 21L30 21L30 20L31 20L31 19L30 19L30 18L31 18L31 17L32 17L32 16L33 16L33 15L32 15L32 14L33 14L33 12L32 12L32 9L30 9L30 8L28 8L28 9L22 9L22 10L24 10L24 11L23 11L23 12L25 12L25 13L22 13L22 12L21 12L21 11L20 11L20 13L19 13L19 11L18 11L18 16L15 16L15 15L17 15L17 12L15 12L15 11L17 11L17 10L16 10L16 9L15 9L15 8L17 8L17 9L18 9L18 10L21 10L21 9L19 9L19 8L20 8L20 7L21 7L21 6L20 6L20 7L19 7L19 5L20 5L20 2L19 2L19 0L17 0L17 2L14 2L14 3L13 3L13 4L12 4L12 2L13 2L13 1L12 1L12 0ZM14 0L14 1L15 1L15 0ZM20 0L20 1L21 1L21 4L23 4L23 5L22 5L22 7L23 7L23 8L25 8L25 4L23 4L23 3L22 3L22 1L23 1L23 0ZM24 0L24 3L25 3L25 0ZM17 2L17 3L14 3L14 4L13 4L13 5L12 5L12 4L11 4L11 7L10 7L10 6L9 6L9 7L10 7L10 8L11 8L11 10L10 10L10 11L11 11L11 10L13 10L13 11L12 11L12 12L11 12L11 15L10 15L10 13L9 13L9 14L8 14L8 15L9 15L9 17L11 17L11 19L12 19L12 21L13 21L13 22L14 22L14 23L13 23L13 25L14 25L14 24L15 24L15 22L14 22L14 21L15 21L15 20L18 20L18 19L17 19L17 18L19 18L19 17L21 17L21 18L23 18L23 17L22 17L22 13L21 13L21 16L20 16L20 14L19 14L19 17L17 17L17 18L16 18L16 19L15 19L15 17L12 17L12 15L13 15L13 16L14 16L14 14L15 14L15 12L14 12L14 11L15 11L15 10L14 10L14 9L12 9L12 6L13 6L13 8L15 8L15 7L16 7L16 6L17 6L17 8L18 8L18 6L17 6L17 5L19 5L19 3L18 3L18 2ZM9 3L9 5L10 5L10 3ZM16 4L16 5L17 5L17 4ZM14 5L14 7L15 7L15 5ZM23 5L23 7L24 7L24 5ZM0 8L0 9L2 9L2 10L1 10L1 11L2 11L2 10L3 10L3 9L2 9L2 8ZM6 9L6 10L7 10L7 9ZM29 10L29 11L25 11L25 12L27 12L27 14L28 14L28 15L26 15L26 16L24 16L24 14L23 14L23 16L24 16L24 17L27 17L27 19L29 19L29 20L30 20L30 19L29 19L29 18L30 18L30 17L31 17L31 16L32 16L32 15L31 15L31 16L30 16L30 15L29 15L29 14L30 14L30 13L31 13L31 14L32 14L32 13L31 13L31 12L30 12L30 13L29 13L29 11L30 11L30 10ZM0 13L0 19L1 19L1 14L2 14L2 15L3 15L3 13ZM12 13L12 14L13 14L13 13ZM25 13L25 14L26 14L26 13ZM6 15L6 16L7 16L7 15ZM28 15L28 17L29 17L29 15ZM9 18L9 19L10 19L10 18ZM12 18L12 19L14 19L14 20L13 20L13 21L14 21L14 20L15 20L15 19L14 19L14 18ZM24 18L24 19L23 19L23 21L26 21L26 22L25 22L25 24L27 24L27 22L28 22L28 21L27 21L27 20L26 20L26 19L25 19L25 18ZM32 18L32 20L33 20L33 18ZM19 19L19 21L20 21L20 22L21 22L21 21L22 21L22 19L21 19L21 21L20 21L20 19ZM24 19L24 20L25 20L25 19ZM2 20L2 21L0 21L0 25L3 25L3 24L4 24L4 25L5 25L5 24L4 24L4 22L2 22L2 21L4 21L4 20ZM6 21L6 22L8 22L8 21ZM1 22L1 24L3 24L3 23L2 23L2 22ZM23 22L23 23L21 23L21 25L22 25L22 26L24 26L24 25L23 25L23 24L24 24L24 22ZM6 24L6 25L7 25L7 24ZM19 24L19 25L20 25L20 24ZM30 24L30 25L29 25L29 28L30 28L30 29L28 29L28 30L30 30L30 29L31 29L31 28L32 28L32 27L31 27L31 26L30 26L30 25L31 25L31 24ZM25 25L25 28L28 28L28 25ZM14 26L14 27L12 27L12 28L14 28L14 27L15 27L15 26ZM26 26L26 27L27 27L27 26ZM9 27L9 28L10 28L10 29L11 29L11 30L12 30L12 29L11 29L11 28L10 28L10 27ZM30 27L30 28L31 28L31 27ZM13 29L13 30L14 30L14 29ZM23 30L23 31L24 31L24 30ZM32 30L32 31L33 31L33 30ZM10 32L10 33L12 33L12 32ZM0 0L0 7L7 7L7 0ZM1 1L1 6L6 6L6 1ZM2 2L2 5L5 5L5 2ZM26 0L26 7L33 7L33 0ZM27 1L27 6L32 6L32 1ZM28 2L28 5L31 5L31 2ZM0 26L0 33L7 33L7 26ZM1 27L1 32L6 32L6 27ZM2 28L2 31L5 31L5 28Z" fill="#000000"/></g></g></svg>
