<?xml version="1.0" encoding="UTF-8"?>
<svg xmlns="http://www.w3.org/2000/svg" version="1.1" width="200" height="200" viewBox="0 0 200 200"><rect x="0" y="0" width="200" height="200" fill="#ffffff"/><g transform="scale(6.061)"><g transform="translate(0,0)"><path fill-rule="evenodd" d="M8 0L8 1L9 1L9 2L8 2L8 5L9 5L9 4L11 4L11 5L10 5L10 10L9 10L9 8L8 8L8 12L9 12L9 13L8 13L8 14L6 14L6 13L7 13L7 12L6 12L6 13L5 13L5 14L4 14L4 8L0 8L0 9L1 9L1 11L0 11L0 12L2 12L2 9L3 9L3 14L2 14L2 13L0 13L0 15L1 15L1 16L0 16L0 19L1 19L1 16L2 16L2 15L3 15L3 17L2 17L2 20L3 20L3 21L0 21L0 22L4 22L4 24L2 24L2 23L1 23L1 24L0 24L0 25L1 25L1 24L2 24L2 25L4 25L4 24L5 24L5 25L7 25L7 24L9 24L9 25L8 25L8 26L9 26L9 27L10 27L10 26L12 26L12 27L13 27L13 26L14 26L14 23L15 23L15 26L16 26L16 27L15 27L15 28L12 28L12 29L11 29L11 30L10 30L10 28L9 28L9 29L8 29L8 33L11 33L11 32L12 32L12 33L13 33L13 32L12 32L12 31L13 31L13 30L15 30L15 32L16 32L16 33L18 33L18 31L19 31L19 30L21 30L21 29L23 29L23 31L24 31L24 32L25 32L25 33L27 33L27 32L28 32L28 33L31 33L31 32L30 32L30 31L32 31L32 32L33 32L33 31L32 31L32 29L33 29L33 28L32 28L32 27L31 27L31 26L32 26L32 25L33 25L33 21L32 21L32 20L30 20L30 19L29 19L29 17L31 17L31 19L32 19L32 17L33 17L33 16L31 16L31 15L30 15L30 13L29 13L29 12L30 12L30 10L31 10L31 11L33 11L33 8L32 8L32 9L31 9L31 8L28 8L28 9L29 9L29 10L28 10L28 13L29 13L29 14L28 14L28 15L27 15L27 14L26 14L26 15L25 15L25 14L24 14L24 15L23 15L23 16L22 16L22 14L23 14L23 13L24 13L24 10L25 10L25 12L26 12L26 8L25 8L25 5L24 5L24 7L23 7L23 6L22 6L22 7L23 7L23 8L21 8L21 6L20 6L20 5L22 5L22 4L21 4L21 3L19 3L19 4L17 4L17 3L15 3L15 1L14 1L14 0L12 0L12 1L11 1L11 0L10 0L10 1L9 1L9 0ZM16 0L16 1L17 1L17 0ZM18 0L18 1L20 1L20 2L22 2L22 3L23 3L23 4L24 4L24 3L23 3L23 2L25 2L25 0L23 0L23 2L22 2L22 0L21 0L21 1L20 1L20 0ZM13 1L13 2L11 2L11 4L12 4L12 3L13 3L13 2L14 2L14 1ZM13 4L13 5L12 5L12 6L11 6L11 8L12 8L12 6L13 6L13 11L11 11L11 13L9 13L9 14L8 14L8 16L7 16L7 15L6 15L6 14L5 14L5 15L4 15L4 14L3 14L3 15L4 15L4 17L6 17L6 18L8 18L8 17L9 17L9 15L10 15L10 18L9 18L9 20L10 20L10 21L11 21L11 22L9 22L9 21L8 21L8 20L7 20L7 19L5 19L5 18L3 18L3 20L4 20L4 19L5 19L5 21L6 21L6 22L5 22L5 23L6 23L6 24L7 24L7 23L8 23L8 22L9 22L9 23L13 23L13 22L15 22L15 23L17 23L17 24L16 24L16 26L17 26L17 28L16 28L16 29L17 29L17 30L16 30L16 32L17 32L17 31L18 31L18 29L21 29L21 28L20 28L20 27L21 27L21 25L22 25L22 27L23 27L23 28L24 28L24 27L23 27L23 25L24 25L24 24L25 24L25 23L26 23L26 24L27 24L27 23L28 23L28 24L29 24L29 25L30 25L30 26L29 26L29 30L27 30L27 29L26 29L26 30L27 30L27 31L28 31L28 32L29 32L29 30L31 30L31 29L30 29L30 26L31 26L31 25L32 25L32 21L29 21L29 20L27 20L27 19L28 19L28 17L27 17L27 18L26 18L26 16L25 16L25 17L24 17L24 18L22 18L22 17L21 17L21 18L20 18L20 16L21 16L21 15L19 15L19 13L18 13L18 14L15 14L15 15L13 15L13 14L14 14L14 13L13 13L13 14L12 14L12 16L11 16L11 13L12 13L12 12L13 12L13 11L14 11L14 10L15 10L15 12L16 12L16 13L17 13L17 12L19 12L19 11L20 11L20 10L21 10L21 8L20 8L20 10L19 10L19 11L17 11L17 12L16 12L16 9L14 9L14 6L13 6L13 5L14 5L14 4ZM15 5L15 7L16 7L16 5ZM18 5L18 6L17 6L17 7L18 7L18 9L17 9L17 10L18 10L18 9L19 9L19 7L20 7L20 6L19 6L19 5ZM8 6L8 7L9 7L9 6ZM18 6L18 7L19 7L19 6ZM6 8L6 9L7 9L7 8ZM23 8L23 9L22 9L22 11L21 11L21 12L20 12L20 14L22 14L22 13L21 13L21 12L22 12L22 11L23 11L23 9L24 9L24 8ZM11 9L11 10L12 10L12 9ZM6 10L6 11L7 11L7 10ZM1 14L1 15L2 15L2 14ZM15 15L15 16L16 16L16 17L15 17L15 18L14 18L14 16L12 16L12 17L13 17L13 18L14 18L14 19L17 19L17 21L15 21L15 22L17 22L17 23L19 23L19 22L21 22L21 21L22 21L22 20L23 20L23 19L22 19L22 18L21 18L21 19L22 19L22 20L19 20L19 21L18 21L18 19L19 19L19 17L18 17L18 19L17 19L17 18L16 18L16 17L17 17L17 15ZM18 15L18 16L19 16L19 15ZM28 15L28 16L30 16L30 15ZM6 16L6 17L7 17L7 16ZM24 18L24 19L25 19L25 18ZM10 19L10 20L12 20L12 19ZM6 20L6 21L7 21L7 20ZM24 20L24 21L23 21L23 22L22 22L22 25L23 25L23 23L24 23L24 22L26 22L26 23L27 23L27 22L28 22L28 21L26 21L26 20ZM6 22L6 23L7 23L7 22ZM29 22L29 23L31 23L31 22ZM20 23L20 24L17 24L17 26L19 26L19 27L18 27L18 28L19 28L19 27L20 27L20 24L21 24L21 23ZM9 25L9 26L10 26L10 25ZM12 25L12 26L13 26L13 25ZM25 25L25 28L28 28L28 25ZM26 26L26 27L27 27L27 26ZM24 29L24 30L25 30L25 29ZM11 30L11 31L12 31L12 30ZM9 31L9 32L10 32L10 31ZM20 31L20 32L19 32L19 33L20 33L20 32L21 32L21 33L23 33L23 32L21 32L21 31ZM25 31L25 32L26 32L26 31ZM0 0L0 7L7 7L7 0ZM1 1L1 6L6 6L6 1ZM2 2L2 5L5 5L5 2ZM26 0L26 7L33 7L33 0ZM27 1L27 6L32 6L32 1ZM28 2L28 5L31 5L31 2ZM0 26L0 33L7 33L7 26ZM1 27L1 32L6 32L6 27ZM2 28L2 31L5 31L5 28Z" fill="#000000"/></g></g></svg>
