<?xml version="1.0" encoding="UTF-8"?>
<svg xmlns="http://www.w3.org/2000/svg" version="1.1" width="200" height="200" viewBox="0 0 200 200"><rect x="0" y="0" width="200" height="200" fill="#ffffff"/><g transform="scale(6.061)"><g transform="translate(0,0)"><path fill-rule="evenodd" d="M8 0L8 1L11 1L11 3L10 3L10 2L9 2L9 3L10 3L10 5L9 5L9 6L8 6L8 8L9 8L9 9L10 9L10 10L8 10L8 9L7 9L7 8L6 8L6 9L5 9L5 8L3 8L3 10L2 10L2 8L0 8L0 11L1 11L1 13L0 13L0 17L1 17L1 18L0 18L0 19L1 19L1 21L0 21L0 25L3 25L3 24L1 24L1 22L2 22L2 21L3 21L3 20L4 20L4 22L3 22L3 23L4 23L4 25L5 25L5 24L6 24L6 25L8 25L8 26L10 26L10 27L11 27L11 28L12 28L12 29L9 29L9 28L8 28L8 30L11 30L11 31L12 31L12 30L13 30L13 32L14 32L14 33L20 33L20 32L21 32L21 29L20 29L20 30L18 30L18 29L19 29L19 27L20 27L20 26L18 26L18 29L15 29L15 27L17 27L17 26L16 26L16 25L17 25L17 24L18 24L18 25L19 25L19 24L20 24L20 25L21 25L21 26L22 26L22 25L21 25L21 23L22 23L22 24L23 24L23 25L24 25L24 26L23 26L23 27L24 27L24 28L22 28L22 29L24 29L24 31L23 31L23 30L22 30L22 31L23 31L23 32L22 32L22 33L23 33L23 32L24 32L24 33L27 33L27 32L28 32L28 33L30 33L30 32L33 32L33 30L32 30L32 31L31 31L31 29L33 29L33 27L32 27L32 28L31 28L31 27L30 27L30 28L31 28L31 29L29 29L29 25L30 25L30 26L31 26L31 25L32 25L32 24L33 24L33 22L32 22L32 23L30 23L30 22L29 22L29 21L30 21L30 20L31 20L31 21L32 21L32 19L33 19L33 18L32 18L32 19L30 19L30 18L31 18L31 17L33 17L33 15L32 15L32 16L31 16L31 14L32 14L32 13L33 13L33 12L32 12L32 11L33 11L33 10L32 10L32 9L33 9L33 8L32 8L32 9L27 9L27 8L26 8L26 9L23 9L23 8L22 8L22 10L23 10L23 11L22 11L22 12L21 12L21 9L20 9L20 8L21 8L21 6L20 6L20 8L19 8L19 5L21 5L21 4L23 4L23 3L25 3L25 0L24 0L24 2L22 2L22 1L23 1L23 0L20 0L20 1L19 1L19 0L17 0L17 2L18 2L18 3L19 3L19 5L18 5L18 4L16 4L16 7L15 7L15 4L14 4L14 3L16 3L16 2L15 2L15 0L14 0L14 1L12 1L12 0ZM12 2L12 4L13 4L13 5L12 5L12 6L11 6L11 5L10 5L10 6L9 6L9 7L10 7L10 9L11 9L11 10L10 10L10 11L8 11L8 12L7 12L7 11L5 11L5 9L4 9L4 10L3 10L3 11L2 11L2 10L1 10L1 11L2 11L2 12L4 12L4 11L5 11L5 14L4 14L4 13L3 13L3 14L4 14L4 15L2 15L2 13L1 13L1 15L2 15L2 16L1 16L1 17L2 17L2 16L3 16L3 18L1 18L1 19L4 19L4 20L7 20L7 21L6 21L6 22L4 22L4 23L6 23L6 24L8 24L8 25L10 25L10 26L13 26L13 27L12 27L12 28L14 28L14 27L15 27L15 25L14 25L14 24L15 24L15 23L13 23L13 22L14 22L14 21L15 21L15 22L16 22L16 23L17 23L17 20L18 20L18 19L17 19L17 17L18 17L18 18L19 18L19 17L20 17L20 15L19 15L19 17L18 17L18 12L17 12L17 14L16 14L16 15L15 15L15 16L14 16L14 15L13 15L13 14L12 14L12 13L15 13L15 12L16 12L16 11L15 11L15 12L14 12L14 8L13 8L13 9L12 9L12 6L13 6L13 7L14 7L14 4L13 4L13 2ZM19 2L19 3L20 3L20 4L21 4L21 2ZM24 4L24 5L23 5L23 6L22 6L22 7L23 7L23 6L24 6L24 7L25 7L25 4ZM17 5L17 8L18 8L18 5ZM10 6L10 7L11 7L11 6ZM15 8L15 9L16 9L16 10L18 10L18 11L19 11L19 14L21 14L21 18L22 18L22 15L24 15L24 17L23 17L23 18L24 18L24 19L23 19L23 20L22 20L22 19L20 19L20 20L21 20L21 21L20 21L20 22L18 22L18 23L21 23L21 21L25 21L25 20L24 20L24 19L25 19L25 18L24 18L24 17L26 17L26 16L27 16L27 19L26 19L26 22L25 22L25 24L27 24L27 23L26 23L26 22L28 22L28 24L29 24L29 22L28 22L28 21L29 21L29 20L30 20L30 19L29 19L29 18L28 18L28 15L26 15L26 14L30 14L30 13L31 13L31 12L30 12L30 11L29 11L29 12L28 12L28 11L27 11L27 10L26 10L26 11L25 11L25 12L24 12L24 11L23 11L23 12L22 12L22 13L20 13L20 10L18 10L18 9L16 9L16 8ZM6 9L6 10L7 10L7 9ZM12 10L12 11L13 11L13 10ZM6 12L6 13L7 13L7 12ZM9 12L9 13L8 13L8 14L6 14L6 15L8 15L8 16L9 16L9 17L8 17L8 18L4 18L4 19L8 19L8 18L9 18L9 20L8 20L8 21L7 21L7 22L6 22L6 23L9 23L9 24L10 24L10 25L13 25L13 23L12 23L12 22L13 22L13 21L12 21L12 19L13 19L13 20L14 20L14 18L12 18L12 17L14 17L14 16L13 16L13 15L12 15L12 16L11 16L11 12ZM25 12L25 13L22 13L22 14L24 14L24 15L25 15L25 16L26 16L26 15L25 15L25 14L26 14L26 13L27 13L27 12ZM29 12L29 13L30 13L30 12ZM9 14L9 16L10 16L10 17L9 17L9 18L10 18L10 17L11 17L11 16L10 16L10 14ZM29 15L29 16L30 16L30 17L31 17L31 16L30 16L30 15ZM4 16L4 17L5 17L5 16ZM6 16L6 17L7 17L7 16ZM15 16L15 19L16 19L16 17L17 17L17 16ZM11 18L11 19L12 19L12 18ZM27 19L27 21L28 21L28 20L29 20L29 19ZM9 20L9 22L10 22L10 21L11 21L11 22L12 22L12 21L11 21L11 20ZM15 20L15 21L16 21L16 20ZM30 24L30 25L31 25L31 24ZM25 25L25 28L28 28L28 25ZM26 26L26 27L27 27L27 26ZM13 29L13 30L14 30L14 29ZM25 29L25 31L24 31L24 32L25 32L25 31L28 31L28 32L30 32L30 31L28 31L28 30L27 30L27 29ZM8 31L8 33L9 33L9 32L10 32L10 31ZM14 31L14 32L15 32L15 31ZM16 31L16 32L18 32L18 31ZM11 32L11 33L12 33L12 32ZM0 0L0 7L7 7L7 0ZM1 1L1 6L6 6L6 1ZM2 2L2 5L5 5L5 2ZM26 0L26 7L33 7L33 0ZM27 1L27 6L32 6L32 1ZM28 2L28 5L31 5L31 2ZM0 26L0 33L7 33L7 26ZM1 27L1 32L6 32L6 27ZM2 28L2 31L5 31L5 28Z" fill="#000000"/></g></g></svg>
