<?xml version="1.0" encoding="UTF-8"?>
<svg xmlns="http://www.w3.org/2000/svg" version="1.1" width="200" height="200" viewBox="0 0 200 200"><rect x="0" y="0" width="200" height="200" fill="#ffffff"/><g transform="scale(4.878)"><g transform="translate(0,0)"><path fill-rule="evenodd" d="M9 0L9 1L8 1L8 2L9 2L9 1L10 1L10 0ZM11 0L11 2L10 2L10 3L11 3L11 2L12 2L12 3L13 3L13 4L12 4L12 8L11 8L11 9L14 9L14 8L15 8L15 9L16 9L16 10L15 10L15 13L14 13L14 12L13 12L13 11L14 11L14 10L12 10L12 11L11 11L11 12L13 12L13 13L12 13L12 14L13 14L13 15L12 15L12 16L13 16L13 17L14 17L14 16L13 16L13 15L14 15L14 14L15 14L15 18L12 18L12 17L8 17L8 18L6 18L6 17L7 17L7 16L11 16L11 14L10 14L10 15L8 15L8 14L9 14L9 12L10 12L10 11L7 11L7 10L8 10L8 9L9 9L9 10L10 10L10 8L6 8L6 9L7 9L7 10L5 10L5 11L4 11L4 12L3 12L3 11L2 11L2 10L3 10L3 9L5 9L5 8L0 8L0 11L1 11L1 12L0 12L0 14L1 14L1 12L3 12L3 14L2 14L2 15L3 15L3 16L2 16L2 17L1 17L1 18L2 18L2 19L1 19L1 21L0 21L0 22L2 22L2 21L3 21L3 22L5 22L5 23L4 23L4 25L3 25L3 26L2 26L2 24L3 24L3 23L2 23L2 24L1 24L1 23L0 23L0 24L1 24L1 25L0 25L0 26L2 26L2 27L3 27L3 29L0 29L0 33L1 33L1 30L3 30L3 29L4 29L4 28L5 28L5 29L8 29L8 30L6 30L6 31L2 31L2 32L6 32L6 33L7 33L7 32L9 32L9 33L8 33L8 35L9 35L9 36L8 36L8 41L10 41L10 40L9 40L9 39L10 39L10 38L11 38L11 41L12 41L12 39L13 39L13 38L11 38L11 37L10 37L10 38L9 38L9 36L11 36L11 35L9 35L9 33L10 33L10 30L11 30L11 29L10 29L10 28L5 28L5 27L7 27L7 26L9 26L9 25L8 25L8 24L6 24L6 25L5 25L5 23L7 23L7 22L5 22L5 21L7 21L7 20L8 20L8 21L9 21L9 23L10 23L10 24L11 24L11 25L10 25L10 27L11 27L11 26L12 26L12 25L14 25L14 24L12 24L12 23L13 23L13 22L14 22L14 23L15 23L15 25L16 25L16 22L14 22L14 20L12 20L12 19L15 19L15 21L17 21L17 23L18 23L18 24L17 24L17 25L18 25L18 26L15 26L15 27L18 27L18 28L17 28L17 29L20 29L20 33L19 33L19 32L17 32L17 30L15 30L15 29L16 29L16 28L13 28L13 27L14 27L14 26L13 26L13 27L12 27L12 28L13 28L13 29L12 29L12 30L13 30L13 31L12 31L12 33L11 33L11 34L12 34L12 33L13 33L13 34L14 34L14 36L15 36L15 37L19 37L19 38L18 38L18 40L15 40L15 39L16 39L16 38L15 38L15 39L14 39L14 40L13 40L13 41L19 41L19 38L20 38L20 37L21 37L21 36L22 36L22 35L21 35L21 36L20 36L20 35L19 35L19 34L20 34L20 33L21 33L21 34L22 34L22 33L23 33L23 34L24 34L24 35L23 35L23 36L24 36L24 37L22 37L22 39L21 39L21 40L24 40L24 41L26 41L26 40L27 40L27 41L28 41L28 40L27 40L27 39L28 39L28 38L27 38L27 39L26 39L26 38L25 38L25 37L26 37L26 36L25 36L25 33L26 33L26 34L27 34L27 35L28 35L28 34L27 34L27 31L28 31L28 30L27 30L27 29L26 29L26 28L23 28L23 30L22 30L22 29L21 29L21 28L22 28L22 27L21 27L21 28L20 28L20 27L19 27L19 26L20 26L20 24L22 24L22 26L24 26L24 27L25 27L25 25L26 25L26 26L27 26L27 27L28 27L28 26L27 26L27 25L28 25L28 24L27 24L27 23L28 23L28 22L29 22L29 23L30 23L30 24L29 24L29 25L30 25L30 24L31 24L31 26L30 26L30 27L31 27L31 26L32 26L32 24L33 24L33 25L34 25L34 26L36 26L36 28L35 28L35 27L32 27L32 28L31 28L31 29L30 29L30 28L29 28L29 29L30 29L30 30L33 30L33 31L32 31L32 32L31 32L31 31L30 31L30 32L28 32L28 33L29 33L29 34L31 34L31 35L30 35L30 36L27 36L27 37L30 37L30 38L31 38L31 35L32 35L32 37L33 37L33 38L34 38L34 39L32 39L32 40L29 40L29 41L32 41L32 40L34 40L34 39L35 39L35 40L36 40L36 41L37 41L37 38L36 38L36 39L35 39L35 38L34 38L34 37L37 37L37 36L38 36L38 39L39 39L39 40L38 40L38 41L39 41L39 40L40 40L40 39L41 39L41 38L40 38L40 37L39 37L39 36L40 36L40 35L39 35L39 36L38 36L38 35L37 35L37 34L38 34L38 33L39 33L39 34L41 34L41 33L40 33L40 32L41 32L41 31L39 31L39 30L38 30L38 31L39 31L39 32L37 32L37 31L36 31L36 32L33 32L33 31L34 31L34 30L35 30L35 29L36 29L36 30L37 30L37 29L36 29L36 28L38 28L38 29L40 29L40 30L41 30L41 28L38 28L38 26L41 26L41 23L40 23L40 22L41 22L41 21L39 21L39 20L40 20L40 19L39 19L39 20L38 20L38 18L37 18L37 16L38 16L38 17L39 17L39 18L41 18L41 17L40 17L40 16L41 16L41 15L39 15L39 16L38 16L38 15L36 15L36 17L34 17L34 16L35 16L35 15L34 15L34 14L35 14L35 13L34 13L34 11L35 11L35 12L38 12L38 13L36 13L36 14L38 14L38 13L40 13L40 12L38 12L38 11L39 11L39 10L41 10L41 9L40 9L40 8L39 8L39 10L37 10L37 9L38 9L38 8L37 8L37 9L36 9L36 8L35 8L35 9L34 9L34 8L33 8L33 9L30 9L30 8L29 8L29 6L28 6L28 5L27 5L27 4L28 4L28 2L29 2L29 0L28 0L28 1L27 1L27 0L26 0L26 1L27 1L27 4L26 4L26 3L25 3L25 1L24 1L24 0L23 0L23 1L22 1L22 0L18 0L18 1L17 1L17 0L16 0L16 1L15 1L15 2L16 2L16 1L17 1L17 2L18 2L18 3L19 3L19 1L21 1L21 3L20 3L20 4L19 4L19 5L18 5L18 4L17 4L17 3L15 3L15 4L14 4L14 3L13 3L13 2L14 2L14 0ZM30 0L30 1L33 1L33 0ZM23 1L23 2L22 2L22 3L21 3L21 4L20 4L20 5L19 5L19 8L18 8L18 5L17 5L17 4L15 4L15 5L16 5L16 6L15 6L15 8L18 8L18 9L20 9L20 8L21 8L21 9L22 9L22 11L23 11L23 12L21 12L21 11L20 11L20 10L16 10L16 12L18 12L18 11L19 11L19 12L21 12L21 13L20 13L20 14L18 14L18 15L16 15L16 16L18 16L18 17L19 17L19 18L18 18L18 19L17 19L17 18L16 18L16 20L19 20L19 21L18 21L18 23L19 23L19 24L18 24L18 25L19 25L19 24L20 24L20 23L21 23L21 21L23 21L23 23L24 23L24 22L25 22L25 24L26 24L26 21L27 21L27 20L30 20L30 21L32 21L32 20L33 20L33 22L36 22L36 21L38 21L38 23L37 23L37 26L38 26L38 24L40 24L40 23L39 23L39 21L38 21L38 20L37 20L37 19L35 19L35 18L34 18L34 17L33 17L33 11L34 11L34 10L33 10L33 11L32 11L32 10L30 10L30 11L29 11L29 12L27 12L27 10L28 10L28 9L29 9L29 8L28 8L28 9L25 9L25 8L27 8L27 7L28 7L28 6L27 6L27 7L26 7L26 4L25 4L25 3L23 3L23 2L24 2L24 1ZM30 2L30 3L29 3L29 5L30 5L30 7L31 7L31 4L32 4L32 5L33 5L33 2L32 2L32 3L31 3L31 2ZM8 3L8 4L9 4L9 3ZM22 3L22 4L23 4L23 5L22 5L22 7L21 7L21 6L20 6L20 7L21 7L21 8L22 8L22 9L23 9L23 10L24 10L24 13L23 13L23 14L22 14L22 13L21 13L21 14L20 14L20 15L19 15L19 17L20 17L20 18L23 18L23 16L22 16L22 15L23 15L23 14L24 14L24 15L25 15L25 14L26 14L26 12L25 12L25 10L24 10L24 9L23 9L23 5L24 5L24 4L23 4L23 3ZM30 3L30 4L31 4L31 3ZM10 4L10 5L8 5L8 7L9 7L9 6L10 6L10 7L11 7L11 4ZM13 6L13 8L14 8L14 6ZM16 6L16 7L17 7L17 6ZM24 6L24 8L25 8L25 6ZM32 6L32 7L33 7L33 6ZM35 9L35 11L36 11L36 9ZM5 11L5 13L4 13L4 17L6 17L6 16L7 16L7 15L5 15L5 13L6 13L6 14L7 14L7 13L8 13L8 12L7 12L7 11ZM31 11L31 12L32 12L32 11ZM6 12L6 13L7 13L7 12ZM29 12L29 13L30 13L30 12ZM13 13L13 14L14 14L14 13ZM15 13L15 14L17 14L17 13ZM24 13L24 14L25 14L25 13ZM31 13L31 14L32 14L32 13ZM27 14L27 15L28 15L28 14ZM0 15L0 16L1 16L1 15ZM31 15L31 16L32 16L32 15ZM20 16L20 17L22 17L22 16ZM25 16L25 18L24 18L24 19L23 19L23 20L24 20L24 21L26 21L26 20L25 20L25 18L26 18L26 19L28 19L28 18L29 18L29 17L30 17L30 18L31 18L31 17L30 17L30 16L29 16L29 17L28 17L28 16ZM2 17L2 18L3 18L3 17ZM26 17L26 18L28 18L28 17ZM32 17L32 18L33 18L33 20L35 20L35 19L34 19L34 18L33 18L33 17ZM5 18L5 20L3 20L3 19L2 19L2 20L3 20L3 21L5 21L5 20L7 20L7 19L6 19L6 18ZM8 18L8 19L10 19L10 20L9 20L9 21L10 21L10 22L13 22L13 21L10 21L10 20L11 20L11 19L12 19L12 18ZM19 19L19 20L20 20L20 19ZM21 19L21 20L22 20L22 19ZM30 19L30 20L32 20L32 19ZM19 21L19 22L20 22L20 21ZM30 22L30 23L32 23L32 22ZM35 23L35 24L34 24L34 25L36 25L36 23ZM23 24L23 25L24 25L24 24ZM4 25L4 27L5 27L5 25ZM6 25L6 26L7 26L7 25ZM0 27L0 28L1 28L1 27ZM32 28L32 29L35 29L35 28ZM13 29L13 30L14 30L14 31L13 31L13 33L14 33L14 32L15 32L15 30L14 30L14 29ZM25 29L25 31L24 31L24 30L23 30L23 31L22 31L22 32L21 32L21 33L22 33L22 32L26 32L26 29ZM8 30L8 31L9 31L9 30ZM6 31L6 32L7 32L7 31ZM30 32L30 33L31 33L31 34L32 34L32 33L31 33L31 32ZM15 33L15 34L17 34L17 35L16 35L16 36L18 36L18 33ZM33 33L33 36L36 36L36 33ZM34 34L34 35L35 35L35 34ZM12 36L12 37L13 37L13 36ZM19 36L19 37L20 37L20 36ZM23 38L23 39L24 39L24 38ZM25 39L25 40L26 40L26 39ZM0 0L0 7L7 7L7 0ZM1 1L1 6L6 6L6 1ZM2 2L2 5L5 5L5 2ZM34 0L34 7L41 7L41 0ZM35 1L35 6L40 6L40 1ZM36 2L36 5L39 5L39 2ZM0 34L0 41L7 41L7 34ZM1 35L1 40L6 40L6 35ZM2 36L2 39L5 39L5 36Z" fill="#000000"/></g></g></svg>
