<?xml version="1.0" encoding="UTF-8"?>
<svg xmlns="http://www.w3.org/2000/svg" version="1.1" width="200" height="200" viewBox="0 0 200 200"><rect x="0" y="0" width="200" height="200" fill="#ffffff"/><g transform="scale(6.061)"><g transform="translate(0,0)"><path fill-rule="evenodd" d="M9 0L9 1L8 1L8 3L9 3L9 4L8 4L8 8L6 8L6 9L7 9L7 10L5 10L5 9L4 9L4 8L3 8L3 10L2 10L2 12L3 12L3 13L4 13L4 14L3 14L3 15L2 15L2 13L1 13L1 12L0 12L0 14L1 14L1 15L2 15L2 16L1 16L1 17L0 17L0 19L1 19L1 18L2 18L2 20L0 20L0 21L2 21L2 20L4 20L4 19L3 19L3 18L4 18L4 17L3 17L3 18L2 18L2 16L4 16L4 14L6 14L6 15L5 15L5 21L4 21L4 22L3 22L3 23L2 23L2 22L0 22L0 23L1 23L1 24L0 24L0 25L1 25L1 24L2 24L2 25L3 25L3 23L4 23L4 24L6 24L6 25L7 25L7 24L8 24L8 27L9 27L9 29L8 29L8 30L9 30L9 31L8 31L8 33L9 33L9 32L10 32L10 33L12 33L12 31L13 31L13 30L14 30L14 32L13 32L13 33L14 33L14 32L15 32L15 30L14 30L14 29L16 29L16 28L17 28L17 29L18 29L18 31L17 31L17 30L16 30L16 33L17 33L17 32L18 32L18 33L19 33L19 32L18 32L18 31L19 31L19 30L20 30L20 31L21 31L21 33L25 33L25 31L26 31L26 30L27 30L27 31L28 31L28 33L29 33L29 32L30 32L30 31L33 31L33 28L32 28L32 29L31 29L31 30L27 30L27 29L30 29L30 25L29 25L29 23L28 23L28 24L27 24L27 22L28 22L28 21L26 21L26 22L24 22L24 23L25 23L25 24L24 24L24 25L22 25L22 23L23 23L23 22L22 22L22 23L21 23L21 24L16 24L16 27L15 27L15 28L14 28L14 26L15 26L15 22L17 22L17 21L15 21L15 22L14 22L14 20L18 20L18 21L19 21L19 20L18 20L18 19L19 19L19 17L21 17L21 18L20 18L20 22L19 22L19 23L20 23L20 22L21 22L21 21L22 21L22 19L23 19L23 21L24 21L24 19L23 19L23 18L24 18L24 17L23 17L23 16L25 16L25 17L27 17L27 18L26 18L26 20L27 20L27 19L28 19L28 17L29 17L29 16L30 16L30 15L31 15L31 16L32 16L32 17L31 17L31 19L32 19L32 20L33 20L33 16L32 16L32 14L33 14L33 9L32 9L32 8L30 8L30 9L32 9L32 14L30 14L30 13L28 13L28 11L29 11L29 12L30 12L30 11L31 11L31 10L30 10L30 11L29 11L29 10L28 10L28 11L25 11L25 10L24 10L24 11L23 11L23 13L24 13L24 11L25 11L25 12L26 12L26 14L23 14L23 16L22 16L22 13L21 13L21 12L22 12L22 9L24 9L24 8L25 8L25 3L24 3L24 1L25 1L25 0L22 0L22 3L23 3L23 5L22 5L22 4L21 4L21 3L20 3L20 2L17 2L17 1L16 1L16 0L12 0L12 1L11 1L11 2L9 2L9 1L10 1L10 0ZM18 0L18 1L21 1L21 0ZM13 1L13 3L12 3L12 4L9 4L9 5L10 5L10 6L9 6L9 7L10 7L10 8L8 8L8 9L9 9L9 10L10 10L10 8L11 8L11 9L12 9L12 10L11 10L11 11L8 11L8 10L7 10L7 11L6 11L6 12L7 12L7 13L6 13L6 14L8 14L8 12L9 12L9 13L12 13L12 12L13 12L13 8L17 8L17 9L18 9L18 10L17 10L17 11L16 11L16 9L14 9L14 10L15 10L15 11L14 11L14 13L13 13L13 15L14 15L14 16L12 16L12 14L11 14L11 16L12 16L12 17L11 17L11 18L10 18L10 19L12 19L12 20L14 20L14 19L18 19L18 17L17 17L17 18L16 18L16 16L15 16L15 15L17 15L17 13L16 13L16 12L19 12L19 10L21 10L21 7L22 7L22 6L21 6L21 7L20 7L20 6L19 6L19 5L20 5L20 3L19 3L19 4L17 4L17 5L16 5L16 6L15 6L15 5L14 5L14 6L13 6L13 4L14 4L14 2L15 2L15 3L17 3L17 2L15 2L15 1ZM11 5L11 6L10 6L10 7L11 7L11 6L12 6L12 8L13 8L13 6L12 6L12 5ZM17 5L17 6L16 6L16 7L17 7L17 8L18 8L18 9L19 9L19 8L20 8L20 7L19 7L19 6L18 6L18 5ZM23 5L23 7L24 7L24 5ZM14 6L14 7L15 7L15 6ZM17 6L17 7L18 7L18 8L19 8L19 7L18 7L18 6ZM0 8L0 9L2 9L2 8ZM26 8L26 9L29 9L29 8ZM4 10L4 11L3 11L3 12L4 12L4 13L5 13L5 12L4 12L4 11L5 11L5 10ZM7 11L7 12L8 12L8 11ZM15 11L15 12L16 12L16 11ZM20 11L20 12L21 12L21 11ZM18 13L18 14L19 14L19 15L18 15L18 16L19 16L19 15L20 15L20 16L21 16L21 15L20 15L20 14L19 14L19 13ZM9 14L9 16L8 16L8 17L6 17L6 18L7 18L7 19L6 19L6 20L7 20L7 21L6 21L6 22L4 22L4 23L6 23L6 24L7 24L7 23L6 23L6 22L7 22L7 21L8 21L8 22L9 22L9 23L10 23L10 24L9 24L9 26L10 26L10 24L11 24L11 22L10 22L10 21L11 21L11 20L9 20L9 21L8 21L8 19L9 19L9 16L10 16L10 14ZM14 14L14 15L15 15L15 14ZM27 14L27 15L28 15L28 16L29 16L29 15L30 15L30 14L29 14L29 15L28 15L28 14ZM6 15L6 16L7 16L7 15ZM25 15L25 16L26 16L26 15ZM13 17L13 18L15 18L15 17ZM22 17L22 18L21 18L21 19L22 19L22 18L23 18L23 17ZM29 19L29 20L30 20L30 19ZM29 21L29 22L31 22L31 23L33 23L33 21ZM13 22L13 23L14 23L14 22ZM12 25L12 27L13 27L13 25ZM21 25L21 26L19 26L19 27L18 27L18 28L19 28L19 27L21 27L21 26L22 26L22 27L24 27L24 26L22 26L22 25ZM25 25L25 28L28 28L28 25ZM31 25L31 27L32 27L32 26L33 26L33 25ZM26 26L26 27L27 27L27 26ZM10 27L10 28L11 28L11 27ZM12 28L12 29L14 29L14 28ZM20 28L20 30L21 30L21 28ZM23 28L23 29L24 29L24 30L25 30L25 29L24 29L24 28ZM10 29L10 30L11 30L11 31L10 31L10 32L11 32L11 31L12 31L12 30L11 30L11 29ZM23 31L23 32L24 32L24 31ZM26 32L26 33L27 33L27 32ZM31 32L31 33L32 33L32 32ZM0 0L0 7L7 7L7 0ZM1 1L1 6L6 6L6 1ZM2 2L2 5L5 5L5 2ZM26 0L26 7L33 7L33 0ZM27 1L27 6L32 6L32 1ZM28 2L28 5L31 5L31 2ZM0 26L0 33L7 33L7 26ZM1 27L1 32L6 32L6 27ZM2 28L2 31L5 31L5 28Z" fill="#000000"/></g></g></svg>
